<svg width="25" height="25" viewBox="0 0 25 25" fill="none" xmlns="http://www.w3.org/2000/svg">
<path d="M12.4081 9.94238L15.5781 13.1024C15.5781 13.0524 15.5781 12.9924 15.5781 12.9424C15.5781 12.1467 15.2621 11.3837 14.6994 10.8211C14.1368 10.2585 13.3738 9.94238 12.5781 9.94238C12.5181 9.94238 12.4681 9.94238 12.4081 9.94238ZM8.10813 10.7424L9.65812 12.2924C9.60812 12.5024 9.57812 12.7124 9.57812 12.9424C9.57812 13.738 9.8942 14.5011 10.4568 15.0637C11.0194 15.6263 11.7825 15.9424 12.5781 15.9424C12.7981 15.9424 13.0181 15.9124 13.2281 15.8624L14.7781 17.4124C14.1081 17.7424 13.3681 17.9424 12.5781 17.9424C11.252 17.9424 9.98027 17.4156 9.04259 16.4779C8.10491 15.5402 7.57812 14.2685 7.57812 12.9424C7.57812 12.1524 7.77813 11.4124 8.10813 10.7424ZM2.57812 5.21238L4.85813 7.49238L5.30813 7.94238C3.65813 9.24238 2.35812 10.9424 1.57812 12.9424C3.30813 17.3324 7.57812 20.4424 12.5781 20.4424C14.1281 20.4424 15.6081 20.1424 16.9581 19.6024L17.3881 20.0224L20.3081 22.9424L21.5781 21.6724L3.84812 3.94238M12.5781 7.94238C13.9042 7.94238 15.176 8.46917 16.1137 9.40685C17.0513 10.3445 17.5781 11.6163 17.5781 12.9424C17.5781 13.5824 17.4481 14.2024 17.2181 14.7624L20.1481 17.6924C21.6481 16.4424 22.8481 14.8024 23.5781 12.9424C21.8481 8.55238 17.5781 5.44238 12.5781 5.44238C11.1781 5.44238 9.83812 5.69238 8.57812 6.14238L10.7481 8.29238C11.3181 8.07238 11.9281 7.94238 12.5781 7.94238Z" />
</svg>
