<svg width="25" height="25" viewBox="0 0 25 25" fill="none" xmlns="http://www.w3.org/2000/svg">
<path d="M12.5781 9.94238C11.7825 9.94238 11.0194 10.2585 10.4568 10.8211C9.8942 11.3837 9.57812 12.1467 9.57812 12.9424C9.57812 13.738 9.8942 14.5011 10.4568 15.0637C11.0194 15.6263 11.7825 15.9424 12.5781 15.9424C13.3738 15.9424 14.1368 15.6263 14.6994 15.0637C15.2621 14.5011 15.5781 13.738 15.5781 12.9424C15.5781 12.1467 15.2621 11.3837 14.6994 10.8211C14.1368 10.2585 13.3738 9.94238 12.5781 9.94238ZM12.5781 17.9424C11.252 17.9424 9.98027 17.4156 9.04259 16.4779C8.10491 15.5402 7.57812 14.2685 7.57812 12.9424C7.57812 11.6163 8.10491 10.3445 9.04259 9.40685C9.98027 8.46917 11.252 7.94238 12.5781 7.94238C13.9042 7.94238 15.176 8.46917 16.1137 9.40685C17.0513 10.3445 17.5781 11.6163 17.5781 12.9424C17.5781 14.2685 17.0513 15.5402 16.1137 16.4779C15.176 17.4156 13.9042 17.9424 12.5781 17.9424ZM12.5781 5.44238C7.57812 5.44238 3.30813 8.55238 1.57812 12.9424C3.30813 17.3324 7.57812 20.4424 12.5781 20.4424C17.5781 20.4424 21.8481 17.3324 23.5781 12.9424C21.8481 8.55238 17.5781 5.44238 12.5781 5.44238Z" />
</svg>
