<svg id="Camada_1" data-name="Camada 1" xmlns="http://www.w3.org/2000/svg" viewBox="0 0 300 54.42"><defs><style>.cls-1{fill:#fff;}</style></defs><path class="cls-1" d="M91.7,7.94a19.17,19.17,0,0,1,13.85,4.72,1.42,1.42,0,0,0,1.94-.08L111,9A1.43,1.43,0,0,0,111,7,27.17,27.17,0,1,0,92.86,54.38,27,27,0,0,0,111,47.45a1.42,1.42,0,0,0,.05-2.06l-3.55-3.55a1.42,1.42,0,0,0-1.94-.08,19.13,19.13,0,0,1-12.69,4.76A19.31,19.31,0,0,1,91.7,7.94Z"/><path class="cls-1" d="M46.92,9.25a26.82,26.82,0,1,0,0,35.92v7a1.43,1.43,0,0,0,1.43,1.43h4.29a1.43,1.43,0,0,0,1.43-1.43V2.59a1.43,1.43,0,0,0-1.43-1.43H48.35a1.43,1.43,0,0,0-1.43,1.43ZM27,46.87A19.66,19.66,0,1,1,46.7,27.21,19.68,19.68,0,0,1,27,46.87Z"/><path class="cls-1" d="M165.15,2.59V9.25a26.82,26.82,0,1,0,0,35.92v7a1.43,1.43,0,0,0,1.43,1.43h4.29a1.43,1.43,0,0,0,1.43-1.43V2.59a1.43,1.43,0,0,0-1.43-1.43h-4.29A1.43,1.43,0,0,0,165.15,2.59ZM145.26,46.87a19.66,19.66,0,1,1,19.66-19.66A19.68,19.68,0,0,1,145.26,46.87Z"/><path class="cls-1" d="M273,53.8a26.78,26.78,0,1,1,19-7.84A26.72,26.72,0,0,1,273,53.8Zm0-46.46a19.67,19.67,0,1,0,13.9,5.76A19.54,19.54,0,0,0,273,7.34Z"/><path class="cls-1" d="M260.37,18a15.74,15.74,0,0,0,21.94,21.91A29.79,29.79,0,0,0,260.37,18Z"/><path class="cls-1" d="M276.9,20.1a11.18,11.18,0,0,0,11.53,2.65,15.78,15.78,0,0,0-14.76-11.5A11.15,11.15,0,0,0,276.9,20.1Z"/><circle class="cls-1" cx="187.45" cy="48.87" r="4.89"/><path class="cls-1" d="M234.73,12.34l-3.89,2.11a1.62,1.62,0,0,1-2.13-.49,18.18,18.18,0,0,0-5.37-5.24,11.19,11.19,0,0,0-5.47-1.44,9.28,9.28,0,0,0-5.93,1.86,5.57,5.57,0,0,0-2.36,4.59c0,2.54,2.78,4.95,6.91,6.5l5.67,2.12q6.92,2.56,10.13,6.26a13.4,13.4,0,0,1,3.2,9.06,15.23,15.23,0,0,1-5.23,11.88,18.86,18.86,0,0,1-13.07,4.73,18.44,18.44,0,0,1-12.23-4,16.51,16.51,0,0,1-5.59-9.18,1.48,1.48,0,0,1,1.53-1.75h4.9a1.54,1.54,0,0,1,1.46.94,18.93,18.93,0,0,0,1.81,3.28,11,11,0,0,0,8.45,3.73,12.57,12.57,0,0,0,7.74-2.82,8.54,8.54,0,0,0,3-6.25,8.23,8.23,0,0,0-.46-2.78,7.06,7.06,0,0,0-1.44-2.33,11.25,11.25,0,0,0-2.52-2,24.53,24.53,0,0,0-3.69-1.77l-5.49-2.09c-7.78-3-13.1-7.43-13.1-13.23a12.13,12.13,0,0,1,4.9-9.82,18.71,18.71,0,0,1,12.19-4c6.18,0,12.86,3.71,16.66,10.23A1.36,1.36,0,0,1,234.73,12.34Z"/></svg>